<svg width="40" height="40" viewBox="0 0 40 40" fill="none" xmlns="http://www.w3.org/2000/svg">
<path d="M37.5 21.25L37.5 8.75C37.5 8.58584 37.4677 8.42327 37.4049 8.2716C37.3421 8.11992 37.2501 7.9821 37.134 7.86602C37.0179 7.74994 36.8801 7.65787 36.7284 7.59506C36.5767 7.53226 36.4142 7.49996 36.25 7.5L28.75 7.5C28.5858 7.49996 28.4233 7.53226 28.2716 7.59506C28.1199 7.65787 27.9821 7.74994 27.866 7.86602C27.7499 7.9821 27.6579 8.11992 27.5951 8.27159C27.5323 8.42327 27.5 8.58584 27.5 8.75L27.5 21.25C27.5 21.4142 27.5323 21.5767 27.5951 21.7284C27.6579 21.8801 27.7499 22.0179 27.866 22.134C27.9821 22.2501 28.1199 22.3421 28.2716 22.4049C28.4233 22.4677 28.5858 22.5 28.75 22.5L36.25 22.5C36.4142 22.5 36.5767 22.4677 36.7284 22.4049C36.8801 22.3421 37.0179 22.2501 37.134 22.134C37.2501 22.0179 37.3421 21.8801 37.4049 21.7284C37.4677 21.5767 37.5 21.4142 37.5 21.25Z" fill="#58BA89"/>
<path d="M25 21.25L25 8.75C25 8.58584 24.9677 8.42327 24.9049 8.2716C24.8421 8.11992 24.7501 7.9821 24.634 7.86602C24.5179 7.74994 24.3801 7.65787 24.2284 7.59506C24.0767 7.53226 23.9142 7.49996 23.75 7.5L16.25 7.5C16.0858 7.49996 15.9233 7.53226 15.7716 7.59506C15.6199 7.65787 15.4821 7.74994 15.366 7.86602C15.2499 7.9821 15.1579 8.11992 15.0951 8.27159C15.0323 8.42327 15 8.58584 15 8.75L15 21.25C15 21.4142 15.0323 21.5767 15.0951 21.7284C15.1579 21.8801 15.2499 22.0179 15.366 22.134C15.4821 22.2501 15.6199 22.3421 15.7716 22.4049C15.9233 22.4677 16.0858 22.5 16.25 22.5L23.75 22.5C23.9142 22.5 24.0767 22.4677 24.2284 22.4049C24.3801 22.3421 24.5179 22.2501 24.634 22.134C24.7501 22.0179 24.8421 21.8801 24.9049 21.7284C24.9677 21.5767 25 21.4142 25 21.25Z" fill="#58BA89"/>
<path d="M12.5 21.25L12.5 8.75C12.5 8.58584 12.4677 8.42327 12.4049 8.2716C12.3421 8.11992 12.2501 7.9821 12.134 7.86602C12.0179 7.74994 11.8801 7.65787 11.7284 7.59506C11.5767 7.53226 11.4142 7.49996 11.25 7.5L3.75 7.5C3.58584 7.49996 3.42327 7.53226 3.27159 7.59506C3.11992 7.65787 2.9821 7.74994 2.86602 7.86602C2.74994 7.9821 2.65787 8.11992 2.59506 8.27159C2.53226 8.42327 2.49996 8.58584 2.5 8.75L2.5 21.25C2.49996 21.4142 2.53226 21.5767 2.59506 21.7284C2.65787 21.8801 2.74994 22.0179 2.86602 22.134C2.9821 22.2501 3.11992 22.3421 3.27159 22.4049C3.42327 22.4677 3.58583 22.5 3.75 22.5L11.25 22.5C11.4142 22.5 11.5767 22.4677 11.7284 22.4049C11.8801 22.3421 12.0179 22.2501 12.134 22.134C12.2501 22.0179 12.3421 21.8801 12.4049 21.7284C12.4677 21.5767 12.5 21.4142 12.5 21.25Z" fill="#58BA89"/>
<path d="M21.25 31.25L21.25 30L36.25 30C36.5815 30 36.8995 29.8683 37.1339 29.6339C37.3683 29.3995 37.5 29.0815 37.5 28.75C37.5 28.4185 37.3683 28.1005 37.1339 27.8661C36.8995 27.6317 36.5815 27.5 36.25 27.5L21.25 27.5L21.25 26.25C21.25 25.9185 21.1183 25.6005 20.8839 25.3661C20.6495 25.1317 20.3315 25 20 25C19.6685 25 19.3505 25.1317 19.1161 25.3661C18.8817 25.6005 18.75 25.9185 18.75 26.25L18.75 27.5L3.75 27.5C3.41848 27.5 3.10054 27.6317 2.86612 27.8661C2.63169 28.1005 2.5 28.4185 2.5 28.75C2.5 29.0815 2.63169 29.3995 2.86612 29.6339C3.10054 29.8683 3.41848 30 3.75 30L18.75 30L18.75 31.25C18.75 31.5815 18.8817 31.8995 19.1161 32.1339C19.3505 32.3683 19.6685 32.5 20 32.5C20.3315 32.5 20.6495 32.3683 20.8839 32.1339C21.1183 31.8995 21.25 31.5815 21.25 31.25Z" fill="#02575C"/>
</svg>
