<svg width="16" height="16" viewBox="0 0 16 16" fill="none" xmlns="http://www.w3.org/2000/svg">
<path opacity="0.4" d="M14 14.6667H2C1.72667 14.6667 1.5 14.44 1.5 14.1667C1.5 13.8933 1.72667 13.6667 2 13.6667H14C14.2733 13.6667 14.5 13.8933 14.5 14.1667C14.5 14.44 14.2733 14.6667 14 14.6667Z" fill="#E2F397"/>
<path opacity="0.4" d="M12.68 2.32C11.3867 1.02667 10.12 0.993336 8.79334 2.32L7.98668 3.12667C7.92001 3.19334 7.89334 3.3 7.92001 3.39334C8.42668 5.16 9.84001 6.57334 11.6067 7.08C11.6333 7.08667 11.66 7.09334 11.6867 7.09334C11.76 7.09334 11.8267 7.06667 11.88 7.01334L12.68 6.20667C13.34 5.55334 13.66 4.92 13.66 4.28C13.6667 3.62 13.3467 2.98 12.68 2.32Z" fill="#E2F397"/>
<path d="M10.4067 7.68667C10.2133 7.59334 10.0267 7.50001 9.84668 7.39334C9.70001 7.30667 9.56001 7.21334 9.42001 7.11334C9.30668 7.04001 9.17334 6.93334 9.04667 6.82667C9.03334 6.82001 8.98667 6.78001 8.93334 6.72667C8.71334 6.54001 8.46668 6.30001 8.24668 6.03334C8.22668 6.02001 8.19334 5.97334 8.14668 5.91334C8.08001 5.83334 7.96668 5.70001 7.86668 5.54667C7.78668 5.44667 7.69334 5.30001 7.60668 5.15334C7.50001 4.97334 7.40668 4.79334 7.31334 4.60667C7.22001 4.40667 7.14668 4.21334 7.08001 4.03334L2.89334 8.22001C2.80668 8.30667 2.72668 8.47334 2.70668 8.58667L2.34668 11.14C2.28001 11.5933 2.40668 12.02 2.68668 12.3067C2.92668 12.54 3.26001 12.6667 3.62001 12.6667C3.70001 12.6667 3.78001 12.66 3.86001 12.6467L6.42001 12.2867C6.54001 12.2667 6.70668 12.1867 6.78668 12.1L10.9733 7.91334C10.7867 7.84667 10.6067 7.77334 10.4067 7.68667Z" fill="#E2F397"/>
</svg>
