<svg width="32" height="32" viewBox="0 0 32 32" fill="none" xmlns="http://www.w3.org/2000/svg">
<path opacity="0.4" d="M29.3333 22V26C29.3333 28 28 29.3333 26 29.3333H8C8.54667 29.3333 9.10667 29.2533 9.62667 29.08C9.77333 29.0267 9.91998 28.9733 10.0667 28.9067C10.5333 28.72 10.9867 28.4533 11.3867 28.1067C11.5067 28.0133 11.64 27.8933 11.76 27.7733L11.8133 27.72L20.88 18.6667H26C28 18.6667 29.3333 20 29.3333 22Z" fill="#7D7D7D"/>
<path opacity="0.6" d="M24.4933 15.0533L20.88 18.6667L11.8133 27.72C12.7466 26.76 13.3333 25.44 13.3333 24V11.12L16.9467 7.50667C18.36 6.09334 20.2533 6.09334 21.6667 7.50667L24.4933 10.3333C25.9067 11.7467 25.9067 13.64 24.4933 15.0533Z" fill="#7D7D7D"/>
<path d="M10 2.66667H6C4 2.66667 2.66667 4.00001 2.66667 6.00001V24C2.66667 24.36 2.70665 24.72 2.77332 25.0667C2.81332 25.24 2.85333 25.4133 2.90666 25.5867C2.97333 25.7867 3.04 25.9867 3.12 26.1733C3.13333 26.1867 3.13335 26.2 3.13335 26.2C3.14668 26.2 3.14668 26.2 3.13335 26.2133C3.32001 26.5867 3.53333 26.9467 3.78667 27.28C3.93333 27.4533 4.08002 27.6133 4.22669 27.7733C4.37336 27.9333 4.53334 28.0667 4.70667 28.2L4.72002 28.2133C5.05335 28.4667 5.41333 28.68 5.78667 28.8667C5.8 28.8533 5.80001 28.8533 5.80001 28.8667C6.00001 28.96 6.2 29.0267 6.41333 29.0933C6.58667 29.1467 6.76002 29.1867 6.93335 29.2267C7.28002 29.2933 7.64 29.3333 8 29.3333C8.54667 29.3333 9.10667 29.2533 9.62667 29.08C9.77334 29.0267 9.91999 28.9733 10.0667 28.9067C10.5333 28.72 10.9867 28.4533 11.3867 28.1067C11.5067 28.0133 11.64 27.8933 11.76 27.7733L11.8133 27.72C12.7467 26.76 13.3333 25.44 13.3333 24V6.00001C13.3333 4.00001 12 2.66667 10 2.66667ZM8 26C6.89334 26 6 25.1067 6 24C6 22.8933 6.89334 22 8 22C9.10667 22 10 22.8933 10 24C10 25.1067 9.10667 26 8 26Z" fill="#7D7D7D"/>
</svg>
