<svg width="32" height="32" viewBox="0 0 32 32" fill="none" xmlns="http://www.w3.org/2000/svg">
<path opacity="0.4" d="M27.3333 13.5867H23.48C20.32 13.5867 17.7467 11.0134 17.7467 7.85335V4.00002C17.7467 3.26669 17.1467 2.66669 16.4133 2.66669H10.76C6.65333 2.66669 3.33333 5.33335 3.33333 10.0934V21.9067C3.33333 26.6667 6.65333 29.3334 10.76 29.3334H21.24C25.3467 29.3334 28.6667 26.6667 28.6667 21.9067V14.92C28.6667 14.1867 28.0667 13.5867 27.3333 13.5867Z" fill="#7D7D7D"/>
<path d="M21.0667 2.94664C20.52 2.39997 19.5733 2.7733 19.5733 3.5333V8.18664C19.5733 10.1333 21.2267 11.7466 23.24 11.7466C24.5067 11.76 26.2667 11.76 27.7733 11.76C28.5333 11.76 28.9333 10.8666 28.4 10.3333C26.48 8.39997 23.04 4.91997 21.0667 2.94664Z" fill="#7D7D7D"/>
<path d="M18 18.3333H10C9.45333 18.3333 9 17.88 9 17.3333C9 16.7866 9.45333 16.3333 10 16.3333H18C18.5467 16.3333 19 16.7866 19 17.3333C19 17.88 18.5467 18.3333 18 18.3333Z" fill="#7D7D7D"/>
<path d="M15.3333 23.6667H10C9.45333 23.6667 9 23.2134 9 22.6667C9 22.12 9.45333 21.6667 10 21.6667H15.3333C15.88 21.6667 16.3333 22.12 16.3333 22.6667C16.3333 23.2134 15.88 23.6667 15.3333 23.6667Z" fill="#7D7D7D"/>
</svg>
