<svg width="32" height="32" viewBox="0 0 32 32" fill="none" xmlns="http://www.w3.org/2000/svg">
<path opacity="0.4" d="M16 29.3333C23.3638 29.3333 29.3333 23.3638 29.3333 16C29.3333 8.63619 23.3638 2.66666 16 2.66666C8.63621 2.66666 2.66667 8.63619 2.66667 16C2.66667 23.3638 8.63621 29.3333 16 29.3333Z" fill="#7D7D7D"/>
<path d="M11.5733 15.88L13.7733 16.4267L12.5067 21.5467C12.2133 22.7467 12.8 23.1467 13.8133 22.4401L20.72 17.6534C21.56 17.0667 21.44 16.3867 20.44 16.1333L18.24 15.5867L19.5067 10.4667C19.8 9.26667 19.2133 8.86669 18.2 9.57336L11.2933 14.3601C10.4533 14.9467 10.5733 15.6267 11.5733 15.88Z" fill="#7D7D7D"/>
</svg>
