<svg width="32" height="32" viewBox="0 0 32 32" fill="none" xmlns="http://www.w3.org/2000/svg">
<path opacity="0.4" d="M23.3733 10.36C23.28 10.3467 23.1867 10.3467 23.0933 10.36C21.0267 10.2933 19.3867 8.59999 19.3867 6.51999C19.3867 4.39999 21.1067 2.66666 23.24 2.66666C25.36 2.66666 27.0933 4.38666 27.0933 6.51999C27.08 8.59999 25.44 10.2933 23.3733 10.36Z" fill="#7D7D7D"/>
<path opacity="0.4" d="M27.72 19.6C26.2267 20.6 24.1333 20.9733 22.2 20.72C22.7067 19.6267 22.9733 18.4134 22.9867 17.1334C22.9867 15.8 22.6933 14.5334 22.1333 13.4267C24.1067 13.16 26.2 13.5333 27.7067 14.5333C29.8133 15.92 29.8133 18.2 27.72 19.6Z" fill="#7D7D7D"/>
<path opacity="0.4" d="M8.58666 10.36C8.68 10.3467 8.77334 10.3467 8.86667 10.36C10.9333 10.2933 12.5733 8.59999 12.5733 6.51999C12.5733 4.39999 10.8533 2.66666 8.72 2.66666C6.6 2.66666 4.86667 4.38666 4.86667 6.51999C4.88 8.59999 6.52 10.2933 8.58666 10.36Z" fill="#7D7D7D"/>
<path opacity="0.4" d="M8.73334 17.1333C8.73334 18.4267 9.01334 19.6533 9.52 20.76C7.64 20.96 5.68 20.56 4.24 19.6133C2.13334 18.2133 2.13334 15.9333 4.24 14.5333C5.66667 13.5733 7.68 13.1867 9.57334 13.4C9.02667 14.52 8.73334 15.7867 8.73334 17.1333Z" fill="#7D7D7D"/>
<path d="M16.16 21.16C16.0533 21.1467 15.9333 21.1467 15.8133 21.16C13.36 21.08 11.4 19.0667 11.4 16.5867C11.4 14.0533 13.44 12 15.9867 12C18.52 12 20.5733 14.0533 20.5733 16.5867C20.5733 19.0667 18.6267 21.08 16.16 21.16Z" fill="#58BA89"/>
<path d="M11.8267 23.92C9.81333 25.2667 9.81333 27.48 11.8267 28.8133C14.12 30.3467 17.88 30.3467 20.1733 28.8133C22.1867 27.4667 22.1867 25.2533 20.1733 23.92C17.8933 22.3867 14.1333 22.3867 11.8267 23.92Z" fill="#58BA89"/>
</svg>
