<svg width="32" height="32" viewBox="0 0 32 32" fill="none" xmlns="http://www.w3.org/2000/svg">
<path d="M17.9067 20H5.86666C3.44 20 1.89333 17.4 3.06666 15.2667L6.17333 9.61335L9.08 4.32001C10.2933 2.12001 13.4667 2.12001 14.68 4.32001L17.6 9.61335L19 12.16L20.7067 15.2667C21.88 17.4 20.3333 20 17.9067 20Z" fill="#7D7D7D"/>
<path opacity="0.4" d="M29.3333 20.6667C29.3333 25.4533 25.4533 29.3333 20.6667 29.3333C15.88 29.3333 12 25.4533 12 20.6667C12 20.44 12.0133 20.2267 12.0267 20H17.9067C20.3333 20 21.88 17.4 20.7067 15.2667L19 12.16C19.5333 12.0533 20.0933 12 20.6667 12C25.4533 12 29.3333 15.88 29.3333 20.6667Z" fill="#7D7D7D"/>
</svg>
